<svg width="1791" height="500" viewBox="0 0 1791 500" fill="none" xmlns="http://www.w3.org/2000/svg">
<mask id="path-1-outside-1_440_2" maskUnits="userSpaceOnUse" x="324" y="419" width="179" height="29" fill="black">
<rect fill="white" x="324" y="419" width="179" height="29"/>
<path d="M332.565 441.445C331.072 441.445 329.751 441.136 328.601 440.519C327.471 439.902 326.584 439.035 325.938 437.92C325.313 436.785 325 435.451 325 433.918V433.53C325 432.017 325.313 430.692 325.938 429.558C326.584 428.423 327.471 427.546 328.601 426.929C329.751 426.312 331.072 426.003 332.565 426.003C334.057 426.003 335.368 426.312 336.498 426.929C337.648 427.546 338.535 428.423 339.161 429.558C339.806 430.692 340.129 432.017 340.129 433.53V433.918C340.129 435.451 339.806 436.785 339.161 437.92C338.535 439.035 337.648 439.902 336.498 440.519C335.368 441.136 334.057 441.445 332.565 441.445ZM332.565 439.324C334.138 439.324 335.389 438.836 336.317 437.861C337.265 436.865 337.739 435.531 337.739 433.858V433.59C337.739 431.917 337.265 430.593 336.317 429.617C335.389 428.622 334.138 428.124 332.565 428.124C331.011 428.124 329.761 428.622 328.813 429.617C327.864 430.593 327.39 431.917 327.39 433.59V433.858C327.39 435.531 327.864 436.865 328.813 437.861C329.761 438.836 331.011 439.324 332.565 439.324Z"/>
<path d="M346.193 441.027L343.227 426.421H345.648L348.099 439.444H348.523L351.76 426.421H355.724L358.962 439.444H359.385L361.836 426.421H364.257L361.292 441.027H357.207L353.939 428.004H353.546L350.278 441.027H346.193Z"/>
<path d="M372.668 441.445C371.639 441.445 370.701 441.265 369.854 440.907C369.007 440.549 368.341 440.031 367.857 439.354C367.373 438.677 367.131 437.851 367.131 436.875C367.131 435.879 367.373 435.063 367.857 434.426C368.341 433.769 369.007 433.281 369.854 432.962C370.701 432.624 371.649 432.455 372.698 432.455H377.691V431.379C377.691 430.344 377.378 429.528 376.753 428.93C376.147 428.333 375.24 428.034 374.029 428.034C372.839 428.034 371.911 428.323 371.246 428.9C370.58 429.458 370.126 430.215 369.884 431.17L367.645 430.454C367.887 429.637 368.27 428.9 368.795 428.243C369.319 427.566 370.015 427.029 370.883 426.631C371.77 426.212 372.829 426.003 374.06 426.003C375.956 426.003 377.428 426.491 378.477 427.467C379.526 428.423 380.051 429.777 380.051 431.529V438.129C380.051 438.727 380.333 439.025 380.898 439.025H382.26V441.027H380.172C379.506 441.027 378.972 440.847 378.568 440.489C378.165 440.111 377.963 439.613 377.963 438.996V438.846H377.6C377.378 439.225 377.075 439.623 376.692 440.041C376.329 440.439 375.825 440.768 375.179 441.027C374.534 441.305 373.697 441.445 372.668 441.445ZM372.94 439.414C374.352 439.414 375.492 439.006 376.359 438.189C377.247 437.353 377.691 436.188 377.691 434.695V434.366H372.789C371.841 434.366 371.054 434.575 370.429 434.993C369.823 435.392 369.521 435.999 369.521 436.815C369.521 437.632 369.834 438.269 370.459 438.727C371.104 439.185 371.931 439.414 372.94 439.414Z"/>
<path d="M391.376 441.445C389.54 441.445 387.987 441.027 386.716 440.19C385.466 439.354 384.709 438.03 384.447 436.218L386.716 435.71C386.878 436.666 387.18 437.423 387.624 437.98C388.068 438.518 388.612 438.906 389.258 439.145C389.924 439.364 390.63 439.473 391.376 439.473C392.486 439.473 393.363 439.254 394.009 438.816C394.654 438.378 394.977 437.791 394.977 437.054C394.977 436.298 394.664 435.77 394.039 435.471C393.434 435.153 392.596 434.894 391.527 434.695L390.287 434.486C389.339 434.326 388.471 434.077 387.685 433.739C386.898 433.4 386.273 432.942 385.809 432.365C385.345 431.788 385.113 431.061 385.113 430.185C385.113 428.871 385.627 427.845 386.656 427.108C387.685 426.372 389.046 426.003 390.741 426.003C392.415 426.003 393.766 426.382 394.795 427.138C395.844 427.875 396.52 428.92 396.823 430.274L394.583 430.842C394.402 429.787 393.968 429.05 393.282 428.632C392.596 428.194 391.749 427.975 390.741 427.975C389.732 427.975 388.935 428.164 388.35 428.542C387.765 428.9 387.473 429.438 387.473 430.155C387.473 430.852 387.745 431.369 388.29 431.708C388.855 432.027 389.601 432.265 390.529 432.425L391.769 432.634C392.818 432.813 393.756 433.062 394.583 433.381C395.431 433.679 396.096 434.117 396.58 434.695C397.085 435.272 397.337 436.029 397.337 436.965C397.337 438.398 396.792 439.503 395.703 440.28C394.634 441.056 393.192 441.445 391.376 441.445Z"/>
<path d="M401.372 447V426.421H403.702V428.841H404.125C404.508 428.104 405.124 427.447 405.971 426.869C406.838 426.292 408.039 426.003 409.572 426.003C410.842 426.003 412.002 426.312 413.051 426.929C414.12 427.527 414.968 428.383 415.593 429.498C416.239 430.613 416.561 431.957 416.561 433.53V433.918C416.561 435.471 416.249 436.815 415.623 437.95C414.998 439.085 414.151 439.951 413.082 440.549C412.033 441.146 410.863 441.445 409.572 441.445C408.543 441.445 407.665 441.305 406.939 441.027C406.233 440.768 405.658 440.429 405.214 440.011C404.771 439.593 404.428 439.165 404.186 438.727H403.762V447H401.372ZM408.936 439.354C410.469 439.354 411.71 438.876 412.658 437.92C413.626 436.945 414.11 435.591 414.11 433.858V433.59C414.11 431.857 413.626 430.513 412.658 429.558C411.71 428.582 410.469 428.094 408.936 428.094C407.423 428.094 406.173 428.582 405.184 429.558C404.216 430.513 403.732 431.857 403.732 433.59V433.858C403.732 435.591 404.216 436.945 405.184 437.92C406.173 438.876 407.423 439.354 408.936 439.354Z"/>
<path d="M434.43 447C431.727 447 429.337 446.482 427.259 445.447C425.202 444.412 423.588 442.918 422.418 440.967C421.248 438.996 420.663 436.606 420.663 433.799V433.171C420.663 430.384 421.218 428.014 422.327 426.063C423.437 424.092 424.98 422.588 426.957 421.553C428.954 420.518 431.263 420 433.886 420H434.521C437.022 420 439.221 420.508 441.117 421.523C443.014 422.519 444.496 423.942 445.565 425.794C446.635 427.646 447.169 429.866 447.169 432.455V433.47C447.169 435.999 446.695 437.89 445.747 439.145C444.819 440.399 443.498 441.027 441.783 441.027H440.785C439.958 441.027 439.332 440.847 438.909 440.489C438.485 440.111 438.273 439.613 438.273 438.996V438.697H437.85C437.688 439.115 437.426 439.533 437.063 439.951C436.72 440.35 436.246 440.688 435.641 440.967C435.056 441.246 434.299 441.385 433.371 441.385C432.181 441.385 431.112 441.066 430.164 440.429C429.216 439.792 428.47 438.916 427.925 437.801C427.4 436.686 427.138 435.441 427.138 434.067V433.53C427.138 432.116 427.4 430.862 427.925 429.767C428.449 428.671 429.176 427.805 430.103 427.168C431.031 426.531 432.09 426.212 433.281 426.212C434.188 426.212 434.935 426.342 435.52 426.601C436.105 426.84 436.569 427.148 436.912 427.527C437.254 427.905 437.527 428.283 437.729 428.662H438.152V426.571H440.482V438.159C440.482 438.458 440.532 438.667 440.633 438.787C440.754 438.906 440.956 438.966 441.238 438.966H441.602C442.731 438.966 443.538 438.538 444.022 437.681C444.527 436.805 444.779 435.362 444.779 433.351V432.514C444.779 430.304 444.365 428.433 443.538 426.899C442.711 425.346 441.531 424.162 439.998 423.345C438.465 422.529 436.629 422.121 434.491 422.121H433.977C431.778 422.121 429.861 422.539 428.227 423.375C426.594 424.211 425.323 425.456 424.415 427.108C423.507 428.761 423.053 430.812 423.053 433.261V433.739C423.053 436.168 423.527 438.219 424.475 439.892C425.444 441.544 426.795 442.789 428.53 443.625C430.265 444.461 432.272 444.879 434.551 444.879H440.482V447H434.43ZM433.825 439.264C435.096 439.264 436.135 438.796 436.942 437.861C437.749 436.925 438.152 435.621 438.152 433.948V433.649C438.152 431.977 437.749 430.673 436.942 429.737C436.135 428.781 435.096 428.303 433.825 428.303C432.554 428.303 431.516 428.781 430.709 429.737C429.902 430.692 429.498 431.987 429.498 433.619V433.978C429.498 435.591 429.902 436.875 430.709 437.831C431.516 438.787 432.554 439.264 433.825 439.264Z"/>
<path d="M451.9 441.027V426.421H454.291V441.027H451.9ZM453.111 424.152C452.586 424.152 452.143 423.982 451.779 423.644C451.437 423.305 451.265 422.877 451.265 422.36C451.265 421.822 451.437 421.384 451.779 421.045C452.143 420.707 452.586 420.538 453.111 420.538C453.635 420.538 454.069 420.707 454.412 421.045C454.755 421.384 454.926 421.822 454.926 422.36C454.926 422.877 454.755 423.305 454.412 423.644C454.069 423.982 453.635 424.152 453.111 424.152Z"/>
<path d="M459.317 441.027V426.421H461.708V441.027H459.317ZM460.528 424.152C460.003 424.152 459.559 423.982 459.196 423.644C458.853 423.305 458.682 422.877 458.682 422.36C458.682 421.822 458.853 421.384 459.196 421.045C459.559 420.707 460.003 420.538 460.528 420.538C461.052 420.538 461.486 420.707 461.829 421.045C462.172 421.384 462.343 421.822 462.343 422.36C462.343 422.877 462.172 423.305 461.829 423.644C461.486 423.982 461.052 424.152 460.528 424.152Z"/>
<path d="M466.734 441.027V426.421H469.124V441.027H466.734ZM467.944 424.152C467.42 424.152 466.976 423.982 466.613 423.644C466.27 423.305 466.099 422.877 466.099 422.36C466.099 421.822 466.27 421.384 466.613 421.045C466.976 420.707 467.42 420.538 467.944 420.538C468.469 420.538 468.903 420.707 469.246 421.045C469.588 421.384 469.76 421.822 469.76 422.36C469.76 422.877 469.588 423.305 469.246 423.644C468.903 423.982 468.469 424.152 467.944 424.152Z"/>
<path d="M479.597 441.027C478.75 441.027 478.095 440.798 477.631 440.34C477.187 439.882 476.965 439.254 476.965 438.458V428.482H472.517V426.421H476.965V421.225H479.355V426.421H484.197V428.482H479.355V438.1C479.355 438.697 479.648 438.996 480.233 438.996H483.531V441.027H479.597Z"/>
<path d="M493.8 441.445C492.529 441.445 491.359 441.146 490.29 440.549C489.221 439.951 488.374 439.085 487.748 437.95C487.123 436.815 486.81 435.471 486.81 433.918V433.53C486.81 431.977 487.123 430.643 487.748 429.528C488.374 428.393 489.211 427.527 490.26 426.929C491.329 426.312 492.509 426.003 493.8 426.003C494.829 426.003 495.696 426.143 496.402 426.421C497.128 426.68 497.713 427.019 498.157 427.437C498.601 427.835 498.944 428.263 499.186 428.721H499.61V420.119H502V441.027H499.67V438.607H499.246C498.843 439.344 498.218 440.001 497.37 440.579C496.523 441.156 495.333 441.445 493.8 441.445ZM494.435 439.354C495.969 439.354 497.209 438.876 498.157 437.92C499.125 436.945 499.61 435.591 499.61 433.858V433.59C499.61 431.857 499.125 430.513 498.157 429.558C497.209 428.582 495.969 428.094 494.435 428.094C492.923 428.094 491.672 428.582 490.683 429.558C489.715 430.513 489.231 431.857 489.231 433.59V433.858C489.231 435.591 489.715 436.945 490.683 437.92C491.672 438.876 492.923 439.354 494.435 439.354Z"/>
</mask>
<path d="M332.565 441.445C331.072 441.445 329.751 441.136 328.601 440.519C327.471 439.902 326.584 439.035 325.938 437.92C325.313 436.785 325 435.451 325 433.918V433.53C325 432.017 325.313 430.692 325.938 429.558C326.584 428.423 327.471 427.546 328.601 426.929C329.751 426.312 331.072 426.003 332.565 426.003C334.057 426.003 335.368 426.312 336.498 426.929C337.648 427.546 338.535 428.423 339.161 429.558C339.806 430.692 340.129 432.017 340.129 433.53V433.918C340.129 435.451 339.806 436.785 339.161 437.92C338.535 439.035 337.648 439.902 336.498 440.519C335.368 441.136 334.057 441.445 332.565 441.445ZM332.565 439.324C334.138 439.324 335.389 438.836 336.317 437.861C337.265 436.865 337.739 435.531 337.739 433.858V433.59C337.739 431.917 337.265 430.593 336.317 429.617C335.389 428.622 334.138 428.124 332.565 428.124C331.011 428.124 329.761 428.622 328.813 429.617C327.864 430.593 327.39 431.917 327.39 433.59V433.858C327.39 435.531 327.864 436.865 328.813 437.861C329.761 438.836 331.011 439.324 332.565 439.324Z" fill="#38C9A6"/>
<path d="M346.193 441.027L343.227 426.421H345.648L348.099 439.444H348.523L351.76 426.421H355.724L358.962 439.444H359.385L361.836 426.421H364.257L361.292 441.027H357.207L353.939 428.004H353.546L350.278 441.027H346.193Z" fill="#38C9A6"/>
<path d="M372.668 441.445C371.639 441.445 370.701 441.265 369.854 440.907C369.007 440.549 368.341 440.031 367.857 439.354C367.373 438.677 367.131 437.851 367.131 436.875C367.131 435.879 367.373 435.063 367.857 434.426C368.341 433.769 369.007 433.281 369.854 432.962C370.701 432.624 371.649 432.455 372.698 432.455H377.691V431.379C377.691 430.344 377.378 429.528 376.753 428.93C376.147 428.333 375.24 428.034 374.029 428.034C372.839 428.034 371.911 428.323 371.246 428.9C370.58 429.458 370.126 430.215 369.884 431.17L367.645 430.454C367.887 429.637 368.27 428.9 368.795 428.243C369.319 427.566 370.015 427.029 370.883 426.631C371.77 426.212 372.829 426.003 374.06 426.003C375.956 426.003 377.428 426.491 378.477 427.467C379.526 428.423 380.051 429.777 380.051 431.529V438.129C380.051 438.727 380.333 439.025 380.898 439.025H382.26V441.027H380.172C379.506 441.027 378.972 440.847 378.568 440.489C378.165 440.111 377.963 439.613 377.963 438.996V438.846H377.6C377.378 439.225 377.075 439.623 376.692 440.041C376.329 440.439 375.825 440.768 375.179 441.027C374.534 441.305 373.697 441.445 372.668 441.445ZM372.94 439.414C374.352 439.414 375.492 439.006 376.359 438.189C377.247 437.353 377.691 436.188 377.691 434.695V434.366H372.789C371.841 434.366 371.054 434.575 370.429 434.993C369.823 435.392 369.521 435.999 369.521 436.815C369.521 437.632 369.834 438.269 370.459 438.727C371.104 439.185 371.931 439.414 372.94 439.414Z" fill="#38C9A6"/>
<path d="M391.376 441.445C389.54 441.445 387.987 441.027 386.716 440.19C385.466 439.354 384.709 438.03 384.447 436.218L386.716 435.71C386.878 436.666 387.18 437.423 387.624 437.98C388.068 438.518 388.612 438.906 389.258 439.145C389.924 439.364 390.63 439.473 391.376 439.473C392.486 439.473 393.363 439.254 394.009 438.816C394.654 438.378 394.977 437.791 394.977 437.054C394.977 436.298 394.664 435.77 394.039 435.471C393.434 435.153 392.596 434.894 391.527 434.695L390.287 434.486C389.339 434.326 388.471 434.077 387.685 433.739C386.898 433.4 386.273 432.942 385.809 432.365C385.345 431.788 385.113 431.061 385.113 430.185C385.113 428.871 385.627 427.845 386.656 427.108C387.685 426.372 389.046 426.003 390.741 426.003C392.415 426.003 393.766 426.382 394.795 427.138C395.844 427.875 396.52 428.92 396.823 430.274L394.583 430.842C394.402 429.787 393.968 429.05 393.282 428.632C392.596 428.194 391.749 427.975 390.741 427.975C389.732 427.975 388.935 428.164 388.35 428.542C387.765 428.9 387.473 429.438 387.473 430.155C387.473 430.852 387.745 431.369 388.29 431.708C388.855 432.027 389.601 432.265 390.529 432.425L391.769 432.634C392.818 432.813 393.756 433.062 394.583 433.381C395.431 433.679 396.096 434.117 396.58 434.695C397.085 435.272 397.337 436.029 397.337 436.965C397.337 438.398 396.792 439.503 395.703 440.28C394.634 441.056 393.192 441.445 391.376 441.445Z" fill="#38C9A6"/>
<path d="M401.372 447V426.421H403.702V428.841H404.125C404.508 428.104 405.124 427.447 405.971 426.869C406.838 426.292 408.039 426.003 409.572 426.003C410.842 426.003 412.002 426.312 413.051 426.929C414.12 427.527 414.968 428.383 415.593 429.498C416.239 430.613 416.561 431.957 416.561 433.53V433.918C416.561 435.471 416.249 436.815 415.623 437.95C414.998 439.085 414.151 439.951 413.082 440.549C412.033 441.146 410.863 441.445 409.572 441.445C408.543 441.445 407.665 441.305 406.939 441.027C406.233 440.768 405.658 440.429 405.214 440.011C404.771 439.593 404.428 439.165 404.186 438.727H403.762V447H401.372ZM408.936 439.354C410.469 439.354 411.71 438.876 412.658 437.92C413.626 436.945 414.11 435.591 414.11 433.858V433.59C414.11 431.857 413.626 430.513 412.658 429.558C411.71 428.582 410.469 428.094 408.936 428.094C407.423 428.094 406.173 428.582 405.184 429.558C404.216 430.513 403.732 431.857 403.732 433.59V433.858C403.732 435.591 404.216 436.945 405.184 437.92C406.173 438.876 407.423 439.354 408.936 439.354Z" fill="#38C9A6"/>
<path d="M434.43 447C431.727 447 429.337 446.482 427.259 445.447C425.202 444.412 423.588 442.918 422.418 440.967C421.248 438.996 420.663 436.606 420.663 433.799V433.171C420.663 430.384 421.218 428.014 422.327 426.063C423.437 424.092 424.98 422.588 426.957 421.553C428.954 420.518 431.263 420 433.886 420H434.521C437.022 420 439.221 420.508 441.117 421.523C443.014 422.519 444.496 423.942 445.565 425.794C446.635 427.646 447.169 429.866 447.169 432.455V433.47C447.169 435.999 446.695 437.89 445.747 439.145C444.819 440.399 443.498 441.027 441.783 441.027H440.785C439.958 441.027 439.332 440.847 438.909 440.489C438.485 440.111 438.273 439.613 438.273 438.996V438.697H437.85C437.688 439.115 437.426 439.533 437.063 439.951C436.72 440.35 436.246 440.688 435.641 440.967C435.056 441.246 434.299 441.385 433.371 441.385C432.181 441.385 431.112 441.066 430.164 440.429C429.216 439.792 428.47 438.916 427.925 437.801C427.4 436.686 427.138 435.441 427.138 434.067V433.53C427.138 432.116 427.4 430.862 427.925 429.767C428.449 428.671 429.176 427.805 430.103 427.168C431.031 426.531 432.09 426.212 433.281 426.212C434.188 426.212 434.935 426.342 435.52 426.601C436.105 426.84 436.569 427.148 436.912 427.527C437.254 427.905 437.527 428.283 437.729 428.662H438.152V426.571H440.482V438.159C440.482 438.458 440.532 438.667 440.633 438.787C440.754 438.906 440.956 438.966 441.238 438.966H441.602C442.731 438.966 443.538 438.538 444.022 437.681C444.527 436.805 444.779 435.362 444.779 433.351V432.514C444.779 430.304 444.365 428.433 443.538 426.899C442.711 425.346 441.531 424.162 439.998 423.345C438.465 422.529 436.629 422.121 434.491 422.121H433.977C431.778 422.121 429.861 422.539 428.227 423.375C426.594 424.211 425.323 425.456 424.415 427.108C423.507 428.761 423.053 430.812 423.053 433.261V433.739C423.053 436.168 423.527 438.219 424.475 439.892C425.444 441.544 426.795 442.789 428.53 443.625C430.265 444.461 432.272 444.879 434.551 444.879H440.482V447H434.43ZM433.825 439.264C435.096 439.264 436.135 438.796 436.942 437.861C437.749 436.925 438.152 435.621 438.152 433.948V433.649C438.152 431.977 437.749 430.673 436.942 429.737C436.135 428.781 435.096 428.303 433.825 428.303C432.554 428.303 431.516 428.781 430.709 429.737C429.902 430.692 429.498 431.987 429.498 433.619V433.978C429.498 435.591 429.902 436.875 430.709 437.831C431.516 438.787 432.554 439.264 433.825 439.264Z" fill="#38C9A6"/>
<path d="M451.9 441.027V426.421H454.291V441.027H451.9ZM453.111 424.152C452.586 424.152 452.143 423.982 451.779 423.644C451.437 423.305 451.265 422.877 451.265 422.36C451.265 421.822 451.437 421.384 451.779 421.045C452.143 420.707 452.586 420.538 453.111 420.538C453.635 420.538 454.069 420.707 454.412 421.045C454.755 421.384 454.926 421.822 454.926 422.36C454.926 422.877 454.755 423.305 454.412 423.644C454.069 423.982 453.635 424.152 453.111 424.152Z" fill="#38C9A6"/>
<path d="M459.317 441.027V426.421H461.708V441.027H459.317ZM460.528 424.152C460.003 424.152 459.559 423.982 459.196 423.644C458.853 423.305 458.682 422.877 458.682 422.36C458.682 421.822 458.853 421.384 459.196 421.045C459.559 420.707 460.003 420.538 460.528 420.538C461.052 420.538 461.486 420.707 461.829 421.045C462.172 421.384 462.343 421.822 462.343 422.36C462.343 422.877 462.172 423.305 461.829 423.644C461.486 423.982 461.052 424.152 460.528 424.152Z" fill="#38C9A6"/>
<path d="M466.734 441.027V426.421H469.124V441.027H466.734ZM467.944 424.152C467.42 424.152 466.976 423.982 466.613 423.644C466.27 423.305 466.099 422.877 466.099 422.36C466.099 421.822 466.27 421.384 466.613 421.045C466.976 420.707 467.42 420.538 467.944 420.538C468.469 420.538 468.903 420.707 469.246 421.045C469.588 421.384 469.76 421.822 469.76 422.36C469.76 422.877 469.588 423.305 469.246 423.644C468.903 423.982 468.469 424.152 467.944 424.152Z" fill="#38C9A6"/>
<path d="M479.597 441.027C478.75 441.027 478.095 440.798 477.631 440.34C477.187 439.882 476.965 439.254 476.965 438.458V428.482H472.517V426.421H476.965V421.225H479.355V426.421H484.197V428.482H479.355V438.1C479.355 438.697 479.648 438.996 480.233 438.996H483.531V441.027H479.597Z" fill="#38C9A6"/>
<path d="M493.8 441.445C492.529 441.445 491.359 441.146 490.29 440.549C489.221 439.951 488.374 439.085 487.748 437.95C487.123 436.815 486.81 435.471 486.81 433.918V433.53C486.81 431.977 487.123 430.643 487.748 429.528C488.374 428.393 489.211 427.527 490.26 426.929C491.329 426.312 492.509 426.003 493.8 426.003C494.829 426.003 495.696 426.143 496.402 426.421C497.128 426.68 497.713 427.019 498.157 427.437C498.601 427.835 498.944 428.263 499.186 428.721H499.61V420.119H502V441.027H499.67V438.607H499.246C498.843 439.344 498.218 440.001 497.37 440.579C496.523 441.156 495.333 441.445 493.8 441.445ZM494.435 439.354C495.969 439.354 497.209 438.876 498.157 437.92C499.125 436.945 499.61 435.591 499.61 433.858V433.59C499.61 431.857 499.125 430.513 498.157 429.558C497.209 428.582 495.969 428.094 494.435 428.094C492.923 428.094 491.672 428.582 490.683 429.558C489.715 430.513 489.231 431.857 489.231 433.59V433.858C489.231 435.591 489.715 436.945 490.683 437.92C491.672 438.876 492.923 439.354 494.435 439.354Z" fill="#38C9A6"/>
<path d="M332.565 441.445C331.072 441.445 329.751 441.136 328.601 440.519C327.471 439.902 326.584 439.035 325.938 437.92C325.313 436.785 325 435.451 325 433.918V433.53C325 432.017 325.313 430.692 325.938 429.558C326.584 428.423 327.471 427.546 328.601 426.929C329.751 426.312 331.072 426.003 332.565 426.003C334.057 426.003 335.368 426.312 336.498 426.929C337.648 427.546 338.535 428.423 339.161 429.558C339.806 430.692 340.129 432.017 340.129 433.53V433.918C340.129 435.451 339.806 436.785 339.161 437.92C338.535 439.035 337.648 439.902 336.498 440.519C335.368 441.136 334.057 441.445 332.565 441.445ZM332.565 439.324C334.138 439.324 335.389 438.836 336.317 437.861C337.265 436.865 337.739 435.531 337.739 433.858V433.59C337.739 431.917 337.265 430.593 336.317 429.617C335.389 428.622 334.138 428.124 332.565 428.124C331.011 428.124 329.761 428.622 328.813 429.617C327.864 430.593 327.39 431.917 327.39 433.59V433.858C327.39 435.531 327.864 436.865 328.813 437.861C329.761 438.836 331.011 439.324 332.565 439.324Z" stroke="#38C9A6" stroke-width="2" mask="url(#path-1-outside-1_440_2)"/>
<path d="M346.193 441.027L343.227 426.421H345.648L348.099 439.444H348.523L351.76 426.421H355.724L358.962 439.444H359.385L361.836 426.421H364.257L361.292 441.027H357.207L353.939 428.004H353.546L350.278 441.027H346.193Z" stroke="#38C9A6" stroke-width="2" mask="url(#path-1-outside-1_440_2)"/>
<path d="M372.668 441.445C371.639 441.445 370.701 441.265 369.854 440.907C369.007 440.549 368.341 440.031 367.857 439.354C367.373 438.677 367.131 437.851 367.131 436.875C367.131 435.879 367.373 435.063 367.857 434.426C368.341 433.769 369.007 433.281 369.854 432.962C370.701 432.624 371.649 432.455 372.698 432.455H377.691V431.379C377.691 430.344 377.378 429.528 376.753 428.93C376.147 428.333 375.24 428.034 374.029 428.034C372.839 428.034 371.911 428.323 371.246 428.9C370.58 429.458 370.126 430.215 369.884 431.17L367.645 430.454C367.887 429.637 368.27 428.9 368.795 428.243C369.319 427.566 370.015 427.029 370.883 426.631C371.77 426.212 372.829 426.003 374.06 426.003C375.956 426.003 377.428 426.491 378.477 427.467C379.526 428.423 380.051 429.777 380.051 431.529V438.129C380.051 438.727 380.333 439.025 380.898 439.025H382.26V441.027H380.172C379.506 441.027 378.972 440.847 378.568 440.489C378.165 440.111 377.963 439.613 377.963 438.996V438.846H377.6C377.378 439.225 377.075 439.623 376.692 440.041C376.329 440.439 375.825 440.768 375.179 441.027C374.534 441.305 373.697 441.445 372.668 441.445ZM372.94 439.414C374.352 439.414 375.492 439.006 376.359 438.189C377.247 437.353 377.691 436.188 377.691 434.695V434.366H372.789C371.841 434.366 371.054 434.575 370.429 434.993C369.823 435.392 369.521 435.999 369.521 436.815C369.521 437.632 369.834 438.269 370.459 438.727C371.104 439.185 371.931 439.414 372.94 439.414Z" stroke="#38C9A6" stroke-width="2" mask="url(#path-1-outside-1_440_2)"/>
<path d="M391.376 441.445C389.54 441.445 387.987 441.027 386.716 440.19C385.466 439.354 384.709 438.03 384.447 436.218L386.716 435.71C386.878 436.666 387.18 437.423 387.624 437.98C388.068 438.518 388.612 438.906 389.258 439.145C389.924 439.364 390.63 439.473 391.376 439.473C392.486 439.473 393.363 439.254 394.009 438.816C394.654 438.378 394.977 437.791 394.977 437.054C394.977 436.298 394.664 435.77 394.039 435.471C393.434 435.153 392.596 434.894 391.527 434.695L390.287 434.486C389.339 434.326 388.471 434.077 387.685 433.739C386.898 433.4 386.273 432.942 385.809 432.365C385.345 431.788 385.113 431.061 385.113 430.185C385.113 428.871 385.627 427.845 386.656 427.108C387.685 426.372 389.046 426.003 390.741 426.003C392.415 426.003 393.766 426.382 394.795 427.138C395.844 427.875 396.52 428.92 396.823 430.274L394.583 430.842C394.402 429.787 393.968 429.05 393.282 428.632C392.596 428.194 391.749 427.975 390.741 427.975C389.732 427.975 388.935 428.164 388.35 428.542C387.765 428.9 387.473 429.438 387.473 430.155C387.473 430.852 387.745 431.369 388.29 431.708C388.855 432.027 389.601 432.265 390.529 432.425L391.769 432.634C392.818 432.813 393.756 433.062 394.583 433.381C395.431 433.679 396.096 434.117 396.58 434.695C397.085 435.272 397.337 436.029 397.337 436.965C397.337 438.398 396.792 439.503 395.703 440.28C394.634 441.056 393.192 441.445 391.376 441.445Z" stroke="#38C9A6" stroke-width="2" mask="url(#path-1-outside-1_440_2)"/>
<path d="M401.372 447V426.421H403.702V428.841H404.125C404.508 428.104 405.124 427.447 405.971 426.869C406.838 426.292 408.039 426.003 409.572 426.003C410.842 426.003 412.002 426.312 413.051 426.929C414.12 427.527 414.968 428.383 415.593 429.498C416.239 430.613 416.561 431.957 416.561 433.53V433.918C416.561 435.471 416.249 436.815 415.623 437.95C414.998 439.085 414.151 439.951 413.082 440.549C412.033 441.146 410.863 441.445 409.572 441.445C408.543 441.445 407.665 441.305 406.939 441.027C406.233 440.768 405.658 440.429 405.214 440.011C404.771 439.593 404.428 439.165 404.186 438.727H403.762V447H401.372ZM408.936 439.354C410.469 439.354 411.71 438.876 412.658 437.92C413.626 436.945 414.11 435.591 414.11 433.858V433.59C414.11 431.857 413.626 430.513 412.658 429.558C411.71 428.582 410.469 428.094 408.936 428.094C407.423 428.094 406.173 428.582 405.184 429.558C404.216 430.513 403.732 431.857 403.732 433.59V433.858C403.732 435.591 404.216 436.945 405.184 437.92C406.173 438.876 407.423 439.354 408.936 439.354Z" stroke="#38C9A6" stroke-width="2" mask="url(#path-1-outside-1_440_2)"/>
<path d="M434.43 447C431.727 447 429.337 446.482 427.259 445.447C425.202 444.412 423.588 442.918 422.418 440.967C421.248 438.996 420.663 436.606 420.663 433.799V433.171C420.663 430.384 421.218 428.014 422.327 426.063C423.437 424.092 424.98 422.588 426.957 421.553C428.954 420.518 431.263 420 433.886 420H434.521C437.022 420 439.221 420.508 441.117 421.523C443.014 422.519 444.496 423.942 445.565 425.794C446.635 427.646 447.169 429.866 447.169 432.455V433.47C447.169 435.999 446.695 437.89 445.747 439.145C444.819 440.399 443.498 441.027 441.783 441.027H440.785C439.958 441.027 439.332 440.847 438.909 440.489C438.485 440.111 438.273 439.613 438.273 438.996V438.697H437.85C437.688 439.115 437.426 439.533 437.063 439.951C436.72 440.35 436.246 440.688 435.641 440.967C435.056 441.246 434.299 441.385 433.371 441.385C432.181 441.385 431.112 441.066 430.164 440.429C429.216 439.792 428.47 438.916 427.925 437.801C427.4 436.686 427.138 435.441 427.138 434.067V433.53C427.138 432.116 427.4 430.862 427.925 429.767C428.449 428.671 429.176 427.805 430.103 427.168C431.031 426.531 432.09 426.212 433.281 426.212C434.188 426.212 434.935 426.342 435.52 426.601C436.105 426.84 436.569 427.148 436.912 427.527C437.254 427.905 437.527 428.283 437.729 428.662H438.152V426.571H440.482V438.159C440.482 438.458 440.532 438.667 440.633 438.787C440.754 438.906 440.956 438.966 441.238 438.966H441.602C442.731 438.966 443.538 438.538 444.022 437.681C444.527 436.805 444.779 435.362 444.779 433.351V432.514C444.779 430.304 444.365 428.433 443.538 426.899C442.711 425.346 441.531 424.162 439.998 423.345C438.465 422.529 436.629 422.121 434.491 422.121H433.977C431.778 422.121 429.861 422.539 428.227 423.375C426.594 424.211 425.323 425.456 424.415 427.108C423.507 428.761 423.053 430.812 423.053 433.261V433.739C423.053 436.168 423.527 438.219 424.475 439.892C425.444 441.544 426.795 442.789 428.53 443.625C430.265 444.461 432.272 444.879 434.551 444.879H440.482V447H434.43ZM433.825 439.264C435.096 439.264 436.135 438.796 436.942 437.861C437.749 436.925 438.152 435.621 438.152 433.948V433.649C438.152 431.977 437.749 430.673 436.942 429.737C436.135 428.781 435.096 428.303 433.825 428.303C432.554 428.303 431.516 428.781 430.709 429.737C429.902 430.692 429.498 431.987 429.498 433.619V433.978C429.498 435.591 429.902 436.875 430.709 437.831C431.516 438.787 432.554 439.264 433.825 439.264Z" stroke="#38C9A6" stroke-width="2" mask="url(#path-1-outside-1_440_2)"/>
<path d="M451.9 441.027V426.421H454.291V441.027H451.9ZM453.111 424.152C452.586 424.152 452.143 423.982 451.779 423.644C451.437 423.305 451.265 422.877 451.265 422.36C451.265 421.822 451.437 421.384 451.779 421.045C452.143 420.707 452.586 420.538 453.111 420.538C453.635 420.538 454.069 420.707 454.412 421.045C454.755 421.384 454.926 421.822 454.926 422.36C454.926 422.877 454.755 423.305 454.412 423.644C454.069 423.982 453.635 424.152 453.111 424.152Z" stroke="#38C9A6" stroke-width="2" mask="url(#path-1-outside-1_440_2)"/>
<path d="M459.317 441.027V426.421H461.708V441.027H459.317ZM460.528 424.152C460.003 424.152 459.559 423.982 459.196 423.644C458.853 423.305 458.682 422.877 458.682 422.36C458.682 421.822 458.853 421.384 459.196 421.045C459.559 420.707 460.003 420.538 460.528 420.538C461.052 420.538 461.486 420.707 461.829 421.045C462.172 421.384 462.343 421.822 462.343 422.36C462.343 422.877 462.172 423.305 461.829 423.644C461.486 423.982 461.052 424.152 460.528 424.152Z" stroke="#38C9A6" stroke-width="2" mask="url(#path-1-outside-1_440_2)"/>
<path d="M466.734 441.027V426.421H469.124V441.027H466.734ZM467.944 424.152C467.42 424.152 466.976 423.982 466.613 423.644C466.27 423.305 466.099 422.877 466.099 422.36C466.099 421.822 466.27 421.384 466.613 421.045C466.976 420.707 467.42 420.538 467.944 420.538C468.469 420.538 468.903 420.707 469.246 421.045C469.588 421.384 469.76 421.822 469.76 422.36C469.76 422.877 469.588 423.305 469.246 423.644C468.903 423.982 468.469 424.152 467.944 424.152Z" stroke="#38C9A6" stroke-width="2" mask="url(#path-1-outside-1_440_2)"/>
<path d="M479.597 441.027C478.75 441.027 478.095 440.798 477.631 440.34C477.187 439.882 476.965 439.254 476.965 438.458V428.482H472.517V426.421H476.965V421.225H479.355V426.421H484.197V428.482H479.355V438.1C479.355 438.697 479.648 438.996 480.233 438.996H483.531V441.027H479.597Z" stroke="#38C9A6" stroke-width="2" mask="url(#path-1-outside-1_440_2)"/>
<path d="M493.8 441.445C492.529 441.445 491.359 441.146 490.29 440.549C489.221 439.951 488.374 439.085 487.748 437.95C487.123 436.815 486.81 435.471 486.81 433.918V433.53C486.81 431.977 487.123 430.643 487.748 429.528C488.374 428.393 489.211 427.527 490.26 426.929C491.329 426.312 492.509 426.003 493.8 426.003C494.829 426.003 495.696 426.143 496.402 426.421C497.128 426.68 497.713 427.019 498.157 427.437C498.601 427.835 498.944 428.263 499.186 428.721H499.61V420.119H502V441.027H499.67V438.607H499.246C498.843 439.344 498.218 440.001 497.37 440.579C496.523 441.156 495.333 441.445 493.8 441.445ZM494.435 439.354C495.969 439.354 497.209 438.876 498.157 437.92C499.125 436.945 499.61 435.591 499.61 433.858V433.59C499.61 431.857 499.125 430.513 498.157 429.558C497.209 428.582 495.969 428.094 494.435 428.094C492.923 428.094 491.672 428.582 490.683 429.558C489.715 430.513 489.231 431.857 489.231 433.59V433.858C489.231 435.591 489.715 436.945 490.683 437.92C491.672 438.876 492.923 439.354 494.435 439.354Z" stroke="#38C9A6" stroke-width="2" mask="url(#path-1-outside-1_440_2)"/>
<path d="M885.181 141.046L804.126 356.886H750.713L705.255 216.262L654.407 356.886H600.371L528.518 141.046H584.131L628.966 281.011L678.236 141.046H735.132L779.014 280.388L829.238 141.046H885.181Z" fill="#091F2E"/>
<path d="M1021.88 323.212H917.624L903.327 356.849H848.008L940.5 141.009H998.679L1091.5 356.849H1035.89L1021.88 323.212ZM1003.77 280.681L970.085 200.048L935.734 280.681H1003.77Z" fill="#091F2E"/>
<path d="M1272.09 209.271H1220.29C1220.29 198.474 1207.57 183.87 1185.31 183.87C1169.73 183.87 1150.67 190.861 1150.67 203.232C1150.67 213.7 1164.97 217.836 1195.51 225.779C1229.53 234.673 1277.51 246.093 1277.51 293.711C1277.51 334.961 1241.26 360.692 1190.74 360.692C1123.03 360.692 1094.73 314.977 1094.73 281.34H1146.53C1146.53 281.34 1150.67 315.636 1193.56 315.636C1216.77 315.636 1225.35 305.79 1225.35 296.603C1225.35 282.95 1207.24 278.192 1187.18 273.434C1154.74 265.821 1097.84 253.742 1097.84 205.831C1097.84 166.484 1136.63 137.276 1185.9 137.276C1242.21 137.239 1272.09 175.634 1272.09 209.271Z" fill="#091F2E"/>
<path d="M1495.89 224.205C1495.89 266.736 1468.88 307.986 1413.56 307.986H1366.52V356.849H1314.06V141.046H1413.89C1469.21 141.046 1495.89 182.296 1495.89 224.205ZM1366.52 189.287V260.074H1407.84C1428.81 260.074 1443.1 247.703 1443.1 224.205C1443.1 201.036 1428.81 189.616 1407.84 189.287H1366.52Z" fill="#091F2E"/>
<path d="M522.057 197.716C522.424 198.413 524.405 202.339 525.836 205.678C526.019 206.118 527.157 208.723 528.184 211.584C532.476 223.434 534.824 236.202 534.824 249.446C534.824 311.155 484.562 361.418 423.146 361.418C411.626 361.418 400.547 359.693 390.091 356.465C408.728 350.668 426.045 339.075 438.078 323.629C441.821 318.786 444.682 313.283 447.764 308.037C470.4 298.425 486.47 275.862 486.47 249.446C486.47 223.031 470.657 201.091 448.278 191.369C448.241 189.535 448.094 187.811 447.874 186.233C447.727 184.986 447.507 183.665 447.25 182.234C444.572 167.852 439.473 154.094 434.923 142.281C434.3 140.593 433.199 138.685 433.015 137.878C437.345 138.282 442.151 138.979 447.324 140.153C450.736 140.923 458.514 142.831 467.209 146.61C470.841 148.187 485.809 154.938 500.888 169.65C500.888 169.65 514.206 182.637 522.057 197.716Z" fill="#091F2E"/>
<path d="M432.283 312.513C431.256 315.558 428.064 318.676 425.899 321.024C416.251 331.554 403.74 339.882 390.312 344.761C384.295 346.963 373.436 343.551 367.015 343.918C367.602 343.233 368.397 342.475 369.4 341.643L369.547 341.496L406.858 306.056C414.416 305.249 422.965 312.843 432.283 312.513Z" fill="#38C9A6"/>
<path d="M399.043 295.93C399.007 296.297 398.933 296.7 398.823 297.104C398.64 297.581 398.42 298.058 398.126 298.535L397.612 299.122L352.926 341.643L351.312 341.533C350.799 341.533 350.285 341.423 349.735 341.35C344.929 340.579 336.38 340.139 325.411 340.102C321.265 340.102 317.706 340.322 315.101 340.506C313.67 340.616 312.496 340.689 311.653 340.689L300.169 340.873L386.569 277.512C387.743 277.109 388.991 277.072 390.128 277.439C391.119 277.696 392.146 278.43 392.843 279.457C395.925 283.236 399.704 290.904 399.043 295.93Z" fill="#38C9A6"/>
<path d="M302.738 324.326C303.032 313.21 302.738 303.341 302.738 292.188C302.738 288.702 305.049 287.748 306.957 286.758C307.581 286.428 361.549 257.848 362.503 257.371C363.97 256.637 365.474 256.05 367.089 256.05C370.978 256.05 373.252 259.645 375.38 262.984C376.517 264.782 377.875 266.873 378.242 268.781L302.738 324.326Z" fill="#38C9A6"/>
<path d="M462.77 67.6208C461.743 65.8598 459.505 65.2728 457.744 66.3001L404.069 97.7415L395.154 102.951L392.549 113.004L389.211 125.918C386.863 126.615 384.588 127.642 382.497 129C383.451 120.341 384.405 111.646 385.322 102.988C385.322 102.988 438.153 61.0169 439.62 59.5494C441.088 58.0819 441.454 55.9541 440.17 54.3765C438.923 52.7989 436.612 52.542 435.034 53.7894L386.459 92.642L378.351 99.1356C377.03 111.426 375.71 123.717 374.352 136.007C374.205 136.154 374.059 136.337 373.912 136.521C367.088 144.922 366.428 154.388 365.29 164.734C365.29 163.89 349.551 161.468 348.377 161.248C340.342 159.854 332.638 157.139 325.117 161.615C321.888 163.523 318.696 165.431 315.468 167.339C305.562 173.209 295.656 179.115 285.714 185.022C273.02 192.58 260.399 200.101 247.705 207.585C219.199 224.535 190.729 241.411 162.259 258.288C153.307 263.608 143.255 268.34 135 274.614C137.788 279.457 142.778 283.786 148.281 287.088C150.189 288.262 152.17 289.326 154.188 290.17C157.159 291.527 160.058 292.481 162.846 293.105C177.338 296.26 192.82 294.976 207.202 291.931C211.678 290.977 216.154 289.84 220.556 288.482C227.6 286.318 231.783 283.529 236.405 277.696C247.889 263.168 259.372 248.639 270.855 234.111C280.504 221.857 290.153 209.64 299.802 197.386C304.388 226.81 300.059 275.458 300.059 275.458C300.059 275.458 350.065 254.619 359.97 239.063C365.18 230.919 370.426 222.848 375.893 214.886C378.608 210.924 381.396 206.962 384.221 203.073C386.643 199.697 390.018 196.506 390.788 192.397C390.422 194.818 404.143 197.973 405.757 198.413C412.434 200.321 419.405 202.522 426.412 202.522C435.401 202.522 438.299 198.377 436.905 187.59C435.658 177.868 433.016 168.403 430.118 159.084C427.99 152.223 425.018 145.509 420.836 139.603C416.47 133.439 410.123 128.119 402.822 125.954C400.914 125.367 398.97 125.037 396.952 124.927L401.428 107.757L461.376 72.6103C463.137 71.583 463.724 69.3451 462.697 67.5841L462.77 67.6208Z" fill="#38C9A6"/>
<path d="M1467.47 361H1448V365.471H1455.24V381H1460.23V365.471H1467.47V361Z" fill="#091F2E"/>
<path d="M1496 361H1490.5L1483.41 375.676L1476.29 361H1470.82V381H1475.75V370.794L1480.65 381H1486.15L1491.04 370.794V381H1496V361Z" fill="#091F2E"/>
</svg>
